<?xml version="1.0" encoding="UTF-8"?>
<!DOCTYPE svg PUBLIC "-//W3C//DTD SVG 1.1//EN" "http://www.w3.org/Graphics/SVG/1.1/DTD/svg11.dtd">
<svg xmlns="http://www.w3.org/2000/svg" version="1.1" width="815px" height="659px" style="shape-rendering:geometricPrecision; text-rendering:geometricPrecision; image-rendering:optimizeQuality; fill-rule:evenodd; clip-rule:evenodd" xmlns:xlink="http://www.w3.org/1999/xlink">
<g><path style="opacity:0.999" fill="#0d0d0d" d="M 384.5,84.5 C 480.202,79.6087 556.035,115.609 612,192.5C 659.695,268.486 666.695,348.153 633,431.5C 596.189,509.009 535.689,556.509 451.5,574C 357.821,588.003 279.655,559.836 217,489.5C 163.469,421.185 147.803,344.852 170,260.5C 197.5,177 253,121.5 336.5,94C 352.424,89.7148 368.424,86.5482 384.5,84.5 Z"/></g>
<g><path style="opacity:1" fill="#fbfbfb" d="M 517.5,249.5 C 517.783,250.289 518.283,250.956 519,251.5C 519.828,235.994 519.661,220.661 518.5,205.5C 518.44,201.486 516.773,198.319 513.5,196C 507.491,195.5 501.491,195.667 495.5,196.5C 486.004,196.547 482.504,191.881 485,182.5C 489.012,177.579 494.179,175.579 500.5,176.5C 506.384,176.763 512.217,177.43 518,178.5C 525.154,177.563 532.32,177.396 539.5,178C 541.617,179.731 543.117,181.898 544,184.5C 543.025,219.144 542.525,253.811 542.5,288.5C 542.369,312.863 542.869,337.197 544,361.5C 544.059,364.822 545.226,367.656 547.5,370C 552.846,370.53 558.179,370.363 563.5,369.5C 573.794,369.428 577.96,374.428 576,384.5C 572.279,389.879 567.112,391.879 560.5,390.5C 548.829,389.377 537.162,389.21 525.5,390C 524.213,388.59 523.046,387.09 522,385.5C 521.667,381.5 521.333,377.5 521,373.5C 513.031,383.91 502.531,390.41 489.5,393C 447.82,399.318 420.32,382.485 407,342.5C 398.956,313.737 401.623,286.07 415,259.5C 432.353,233.593 456.52,223.426 487.5,229C 500.132,232.137 510.132,238.97 517.5,249.5 Z"/></g>
<g><path style="opacity:1" fill="#fcfcfc" d="M 294.5,178.5 C 306.82,176.077 315.653,180.41 321,191.5C 341.213,248.808 362.213,305.808 384,362.5C 385.5,365.333 387.667,367.5 390.5,369C 400.541,369.944 410.541,370.944 420.5,372C 424.335,377.233 424.335,382.567 420.5,388C 416.776,389.988 412.776,390.821 408.5,390.5C 395.544,389.014 382.544,388.014 369.5,387.5C 355.821,388.334 342.154,389.334 328.5,390.5C 316.953,391.788 312.119,386.788 314,375.5C 316.743,371.128 320.743,369.128 326,369.5C 333.487,370.45 340.987,370.617 348.5,370C 353.224,367.565 354.724,363.731 353,358.5C 348.667,346.833 344.333,335.167 340,323.5C 339.117,320.898 337.617,318.731 335.5,317C 323.554,315.875 311.554,315.375 299.5,315.5C 288.833,315.667 278.167,315.833 267.5,316C 263.417,317.965 260.584,321.131 259,325.5C 255.333,335.167 251.667,344.833 248,354.5C 247.333,358.167 247.333,361.833 248,365.5C 249.227,367.726 251.061,369.226 253.5,370C 260.842,370.522 268.175,370.355 275.5,369.5C 283.532,368.489 288.199,371.823 289.5,379.5C 289.978,384.927 287.645,388.427 282.5,390C 279.667,390.167 276.833,390.333 274,390.5C 261.224,388.803 248.391,387.803 235.5,387.5C 223.371,388.529 211.204,389.529 199,390.5C 187.583,391.746 183.25,386.746 186,375.5C 187.251,372.619 189.417,370.786 192.5,370C 198.5,369.667 204.5,369.333 210.5,369C 213.102,368.117 215.269,366.617 217,364.5C 239.393,305.988 261.393,247.322 283,188.5C 285.818,183.839 289.651,180.505 294.5,178.5 Z"/></g>
<g><path style="opacity:1" fill="#121212" d="M 299.5,204.5 C 300.586,204.62 301.253,205.287 301.5,206.5C 310.833,235.167 320.167,263.833 329.5,292.5C 329.182,293.647 328.516,294.481 327.5,295C 308.926,295.825 290.426,295.659 272,294.5C 271.333,292.5 271.333,290.5 272,288.5C 281.475,260.575 290.642,232.575 299.5,204.5 Z"/></g>
<g><path style="opacity:1" fill="#6a6a6a" d="M 518.5,205.5 C 519.661,220.661 519.828,235.994 519,251.5C 518.283,250.956 517.783,250.289 517.5,249.5C 518.496,235.01 518.829,220.343 518.5,205.5 Z"/></g>
<g><path style="opacity:1" fill="#0e0e0e" d="M 466.5,248.5 C 492.714,246.254 509.548,257.588 517,282.5C 518.979,301.168 518.979,319.835 517,338.5C 514.494,357.338 503.994,368.838 485.5,373C 460.843,376.924 443.676,367.424 434,344.5C 428.788,328.235 427.121,311.568 429,294.5C 430.635,280.233 436.468,268.066 446.5,258C 452.616,253.44 459.282,250.273 466.5,248.5 Z"/></g>
<g><path style="opacity:1" fill="#f9f9f9" d="M 574.5,294.5 C 592.836,294.333 611.17,294.5 629.5,295C 637.837,297.03 640.671,302.196 638,310.5C 636.833,313 635,314.833 632.5,316C 612.167,316.667 591.833,316.667 571.5,316C 569,314.833 567.167,313 566,310.5C 563.544,302.167 566.378,296.834 574.5,294.5 Z"/></g>
<g><path style="opacity:1" fill="#f9f9f9" d="M 320.5,398.5 C 328.408,399.483 336.242,399.816 344,399.5C 344.333,410.5 344.667,421.5 345,432.5C 350.714,426.061 357.88,423.061 366.5,423.5C 381.198,422.921 390.698,429.587 395,443.5C 395.333,458.167 395.667,472.833 396,487.5C 396.309,488.766 396.809,489.933 397.5,491C 401.167,491.333 404.833,491.667 408.5,492C 411.791,498.423 409.624,501.59 402,501.5C 391.513,500.778 381.013,500.278 370.5,500C 367.068,497.633 366.735,494.966 369.5,492C 373.5,491.667 377.5,491.333 381.5,491C 382.46,489.581 383.293,488.081 384,486.5C 384.667,473.833 384.667,461.167 384,448.5C 381.1,435.286 372.933,430.119 359.5,433C 350.962,436.21 346.129,442.377 345,451.5C 344.333,463.5 344.333,475.5 345,487.5C 345.707,489.081 346.54,490.581 347.5,492C 351.139,491.722 354.806,491.722 358.5,492C 361.876,498.171 359.876,501.337 352.5,501.5C 342.998,500.182 333.498,500.182 324,501.5C 317.678,501.086 315.844,497.919 318.5,492C 322.5,491.667 326.5,491.333 330.5,491C 331,490.5 331.5,490 332,489.5C 333.541,464.188 333.875,438.855 333,413.5C 331.325,407.685 327.659,406.018 322,408.5C 317.625,408.08 315.958,405.747 317,401.5C 318.145,400.364 319.312,399.364 320.5,398.5 Z"/></g>
<g><path style="opacity:1" fill="#f8f8f8" d="M 432.5,423.5 C 456.326,419.808 471.16,429.474 477,452.5C 479.913,470.014 475.08,484.848 462.5,497C 450.994,503.085 438.994,504.085 426.5,500C 417.671,494.847 411.837,487.347 409,477.5C 403.812,458.73 407.978,442.563 421.5,429C 425.259,427.121 428.925,425.287 432.5,423.5 Z"/></g>
<g><path style="opacity:1" fill="#f8f8f8" d="M 505.5,423.5 C 515.859,422.167 525.525,424 534.5,429C 541.388,434.997 543.888,442.497 542,451.5C 537.032,459.452 531.032,460.452 524,454.5C 522.039,448.317 524.205,444.984 530.5,444.5C 529.527,439.353 526.527,435.853 521.5,434C 507.089,431.087 497.589,436.587 493,450.5C 490.115,462.358 491.448,473.691 497,484.5C 504.737,492.979 513.904,494.813 524.5,490C 529.621,485.26 532.788,479.427 534,472.5C 536.153,470.556 538.653,470.056 541.5,471C 543.516,472.028 544.516,473.695 544.5,476C 539.506,497.179 526.173,505.845 504.5,502C 492.272,498.104 484.438,489.937 481,477.5C 475.949,458.521 480.449,442.354 494.5,429C 497.99,426.588 501.657,424.755 505.5,423.5 Z"/></g>
<g><path style="opacity:1" fill="#0f0f0f" d="M 434.5,433.5 C 451.348,430.324 461.515,436.99 465,453.5C 466.26,462.769 465.26,471.769 462,480.5C 455.851,491.116 446.684,494.949 434.5,492C 427.446,488.611 422.946,483.111 421,475.5C 418.032,463.62 419.365,452.286 425,441.5C 427.775,438.22 430.942,435.554 434.5,433.5 Z"/></g>
<g><path style="opacity:1" fill="#f6f6f6" d="M 551.5,484.5 C 562.361,483.516 566.527,488.183 564,498.5C 558.667,503.833 553.333,503.833 548,498.5C 545.423,492.885 546.589,488.218 551.5,484.5 Z"/></g>
</svg>
