<svg class="brandIcon" fill="#DF4161" height="86" viewBox="0 0 124 86" width="124" x="0" xml:space="preserve" xmlns="http://www.w3.org/2000/svg" y="0"><path d="M5.7 85.5C21 85.5 33.5 73 33.5 57.7V28.9c0-9.4 7.6-17 17-17s17 7.6 17 17V57c0 3.1 2.5 5.7 5.7 5.7s5.7-2.6 5.7-5.7V28.9C78.9 13.3 66.2.5 50.5.5S22.1 13.2 22.1 28.9v28.9c0 9-7.3 16.4-16.4 16.4-3.1 0-5.7 2.6-5.7 5.7 0 3 2.5 5.6 5.7 5.6"></path><path d="M123.5 6.2c0-3.1-2.6-5.7-5.7-5.7C102.5.5 90 13 90 28.3v28.9c0 9.4-7.6 17-17 17s-17-7.6-17-17V29c0-3.1-2.6-5.7-5.7-5.7s-5.7 2.5-5.7 5.7v28.1c0 15.6 12.7 28.4 28.4 28.4 15.6 0 28.4-12.7 28.4-28.4V28.3c0-9 7.3-16.4 16.4-16.4 3.2 0 5.7-2.5 5.7-5.7"></path></svg>