<svg xmlns="http://www.w3.org/2000/svg" xmlns:xlink="http://www.w3.org/1999/xlink" width="500" zoomAndPan="magnify" viewBox="0 0 375 374.999991" height="500" preserveAspectRatio="xMidYMid meet" version="1.0"><defs><clipPath id="cf8934a7e0"><path d="M 73 153 L 168 153 L 168 222.816406 L 73 222.816406 Z M 73 153 " clip-rule="nonzero"/></clipPath><clipPath id="9040fda257"><path d="M 38 152.316406 L 132 152.316406 L 132 222 L 38 222 Z M 38 152.316406 " clip-rule="nonzero"/></clipPath></defs><g clip-path="url(#cf8934a7e0)"><path fill="#00945e" d="M 73.285156 221.1875 L 73.285156 211.882812 C 73.285156 199.65625 86.253906 191.824219 97.042969 197.519531 L 119.828125 209.550781 C 128.246094 214 138.355469 207.875 138.355469 198.34375 L 138.355469 154.46875 C 138.355469 153.460938 139.453125 152.839844 140.324219 153.359375 L 161.585938 166.164062 C 164.996094 168.222656 167.085938 171.914062 167.085938 175.910156 L 167.085938 199.285156 C 167.085938 212.289062 156.566406 222.828125 143.585938 222.828125 L 74.890625 222.828125 C 73.996094 222.828125 73.273438 222.105469 73.273438 221.210938 " fill-opacity="1" fill-rule="nonzero"/></g><g clip-path="url(#9040fda257)"><path fill="#54c8e8" d="M 131.917969 153.9375 L 131.917969 163.242188 C 131.917969 175.46875 118.949219 183.300781 108.160156 177.605469 L 85.371094 165.574219 C 76.957031 161.125 66.84375 167.238281 66.84375 176.78125 L 66.84375 220.667969 C 66.84375 221.675781 65.75 222.296875 64.878906 221.777344 L 43.617188 208.972656 C 40.207031 206.914062 38.117188 203.222656 38.117188 199.238281 L 38.117188 175.863281 C 38.105469 162.855469 48.621094 152.316406 61.601562 152.316406 L 130.300781 152.316406 C 131.195312 152.316406 131.917969 153.042969 131.917969 153.9375 " fill-opacity="1" fill-rule="nonzero"/></g><path fill="#193d35" d="M 335.4375 189.640625 L 335.652344 189.640625 C 335.753906 189.640625 335.820312 189.570312 335.820312 189.46875 C 335.820312 189.367188 335.753906 189.300781 335.652344 189.300781 L 335.4375 189.300781 Z M 335.179688 189.085938 L 335.707031 189.085938 C 335.933594 189.085938 336.09375 189.265625 336.09375 189.46875 C 336.09375 189.652344 335.96875 189.765625 335.867188 189.808594 L 336.148438 190.285156 L 335.855469 190.285156 L 335.617188 189.855469 L 335.449219 189.855469 L 335.449219 190.285156 L 335.1875 190.285156 L 335.1875 189.074219 Z M 334.625 189.683594 C 334.625 190.261719 335.03125 190.691406 335.617188 190.691406 C 336.207031 190.691406 336.601562 190.261719 336.601562 189.683594 C 336.601562 189.109375 336.183594 188.6875 335.617188 188.6875 C 335.054688 188.6875 334.625 189.117188 334.625 189.683594 M 334.320312 189.683594 C 334.320312 188.960938 334.882812 188.40625 335.617188 188.40625 C 336.351562 188.40625 336.90625 188.972656 336.90625 189.683594 C 336.90625 190.398438 336.339844 190.988281 335.617188 190.988281 C 334.894531 190.988281 334.320312 190.421875 334.320312 189.683594 " fill-opacity="1" fill-rule="nonzero"/><path fill="#193d35" d="M 192.742188 185.269531 L 184.167969 173.28125 L 184.167969 185.269531 L 178.722656 185.269531 L 178.722656 163.695312 L 182.9375 163.695312 L 191.476562 175.523438 L 191.476562 163.695312 L 196.921875 163.695312 L 196.921875 185.269531 Z M 192.742188 185.269531 " fill-opacity="1" fill-rule="nonzero"/><path fill="#193d35" d="M 201.136719 163.695312 L 206.582031 163.695312 L 206.582031 185.257812 L 201.136719 185.257812 Z M 201.136719 163.695312 " fill-opacity="1" fill-rule="nonzero"/><path fill="#193d35" d="M 225.3125 174.652344 L 230.441406 174.652344 L 230.441406 182.246094 C 227.886719 184.5 225.0625 185.609375 221.890625 185.609375 C 218.511719 185.609375 215.710938 184.535156 213.496094 182.371094 C 211.316406 180.1875 210.207031 177.5625 210.207031 174.484375 C 210.207031 171.402344 211.28125 168.753906 213.472656 166.59375 C 215.652344 164.429688 218.488281 163.355469 222.023438 163.355469 C 224.757812 163.355469 227.34375 164.285156 229.742188 166.09375 L 226.882812 169.886719 C 225.46875 168.742188 223.898438 168.1875 222.207031 168.1875 C 220.082031 168.1875 218.453125 168.800781 217.347656 170.066406 C 216.242188 171.300781 215.6875 172.785156 215.6875 174.539062 C 215.6875 176.292969 216.273438 177.832031 217.414062 179.011719 C 218.578125 180.175781 220.09375 180.765625 221.898438 180.765625 C 223.222656 180.765625 224.363281 180.550781 225.3125 180.140625 L 225.3125 174.640625 Z M 225.3125 174.652344 " fill-opacity="1" fill-rule="nonzero"/><path fill="#193d35" d="M 246.460938 163.695312 L 251.90625 163.695312 L 251.90625 177.039062 C 251.90625 179.722656 251.046875 181.851562 249.296875 183.355469 C 247.578125 184.863281 245.421875 185.609375 242.835938 185.609375 C 240.246094 185.609375 238.101562 184.875 236.371094 183.355469 C 234.65625 181.851562 233.785156 179.722656 233.785156 177.039062 L 233.785156 163.695312 L 239.230469 163.695312 L 239.230469 177.039062 C 239.230469 179.53125 240.765625 180.992188 242.824219 180.992188 C 244.878906 180.992188 246.449219 179.542969 246.449219 177.039062 L 246.449219 163.695312 Z M 246.460938 163.695312 " fill-opacity="1" fill-rule="nonzero"/><path fill="#193d35" d="M 264.230469 169.660156 L 261.554688 177.246094 L 266.785156 177.246094 Z M 258.976562 185.441406 L 253.351562 185.441406 L 261.6875 163.875 L 266.761719 163.875 L 275.222656 185.441406 L 269.507812 185.441406 L 268.027344 181.613281 L 260.402344 181.613281 L 258.988281 185.441406 Z M 258.976562 185.441406 " fill-opacity="1" fill-rule="nonzero"/><path fill="#193d35" d="M 190.121094 191.109375 L 190.121094 193.613281 L 181.511719 193.613281 L 181.511719 199.90625 L 188.933594 199.90625 L 188.933594 202.351562 L 181.511719 202.351562 L 181.511719 210.761719 L 178.765625 210.761719 L 178.765625 191.109375 Z M 190.121094 191.109375 " fill-opacity="1" fill-rule="nonzero"/><path fill="#193d35" d="M 226.261719 191.109375 L 226.261719 193.613281 L 216.839844 193.613281 L 216.839844 199.601562 L 224.644531 199.601562 L 224.644531 202.101562 L 216.839844 202.101562 L 216.839844 208.226562 L 226.53125 208.226562 L 226.53125 210.761719 L 214.09375 210.761719 L 214.09375 191.109375 Z M 226.261719 191.109375 " fill-opacity="1" fill-rule="nonzero"/><path fill="#193d35" d="M 243.589844 191.109375 L 243.589844 193.613281 L 234.167969 193.613281 L 234.167969 199.601562 L 241.976562 199.601562 L 241.976562 202.101562 L 234.167969 202.101562 L 234.167969 208.226562 L 243.863281 208.226562 L 243.863281 210.761719 L 231.421875 210.761719 L 231.421875 191.109375 Z M 243.589844 191.109375 " fill-opacity="1" fill-rule="nonzero"/><path fill="#193d35" d="M 256.898438 208.917969 L 266.648438 193.613281 L 257.226562 193.613281 L 257.226562 191.101562 L 270.253906 191.101562 L 270.253906 192.910156 L 260.503906 208.226562 L 270.171875 208.226562 L 270.171875 210.761719 L 256.898438 210.761719 Z M 256.898438 208.917969 " fill-opacity="1" fill-rule="nonzero"/><path fill="#193d35" d="M 283.265625 208.398438 C 287.265625 208.398438 290.542969 205.25 290.542969 200.9375 C 290.542969 196.625 287.265625 193.476562 283.265625 193.476562 C 279.269531 193.476562 275.992188 196.625 275.992188 200.9375 C 275.992188 205.25 279.269531 208.398438 283.265625 208.398438 M 283.265625 190.773438 C 288.9375 190.773438 293.378906 195.140625 293.378906 200.9375 C 293.378906 206.734375 288.9375 211.101562 283.265625 211.101562 C 277.59375 211.101562 273.15625 206.734375 273.15625 200.9375 C 273.15625 195.140625 277.59375 190.773438 283.265625 190.773438 " fill-opacity="1" fill-rule="nonzero"/><path fill="#193d35" d="M 298.6875 191.109375 L 301.128906 191.109375 L 311.996094 205.828125 L 311.996094 191.109375 L 314.742188 191.109375 L 314.742188 210.761719 L 312.324219 210.761719 L 301.46875 196 L 301.46875 210.761719 L 298.6875 210.761719 Z M 298.6875 191.109375 " fill-opacity="1" fill-rule="nonzero"/><path fill="#193d35" d="M 333.484375 191.109375 L 333.484375 193.613281 L 324.0625 193.613281 L 324.0625 199.601562 L 331.867188 199.601562 L 331.867188 202.101562 L 324.0625 202.101562 L 324.0625 208.226562 L 333.753906 208.226562 L 333.753906 210.761719 L 321.316406 210.761719 L 321.316406 191.109375 Z M 333.484375 191.109375 " fill-opacity="1" fill-rule="nonzero"/><path fill="#193d35" d="M 197.804688 200.699219 L 197.804688 193.679688 L 202.636719 193.679688 C 204.503906 193.679688 206.195312 194.992188 206.195312 197.078125 C 206.195312 199.363281 204.503906 200.699219 202.636719 200.699219 Z M 202.921875 203.03125 C 203.890625 203.03125 204.820312 202.828125 205.632812 202.453125 C 205.664062 202.441406 205.699219 202.417969 205.734375 202.398438 C 206.289062 202.136719 206.785156 201.796875 207.214844 201.390625 C 208.34375 200.359375 209.042969 198.933594 209.042969 197.15625 C 209.042969 193.589844 206.296875 191.167969 202.910156 191.167969 L 195.046875 191.167969 L 195.046875 210.820312 L 197.792969 210.820312 L 197.792969 201.695312 L 205.054688 210.820312 L 208.195312 210.820312 L 201.949219 203.019531 L 202.898438 203.019531 Z M 202.921875 203.03125 " fill-opacity="1" fill-rule="nonzero"/></svg>