<svg xmlns="http://www.w3.org/2000/svg" xmlns:xlink="http://www.w3.org/1999/xlink" width="500" zoomAndPan="magnify" viewBox="0 0 375 374.999991" height="500" preserveAspectRatio="xMidYMid meet" version="1.0"><defs><clipPath id="eaa6077920"><path d="M 84 83.796875 L 291 83.796875 L 291 291.546875 L 84 291.546875 Z M 84 83.796875 " clip-rule="nonzero"/></clipPath><clipPath id="cd44cf2025"><path d="M 51.019531 166 L 324 166 L 324 252 L 51.019531 252 Z M 51.019531 166 " clip-rule="nonzero"/></clipPath></defs><g clip-path="url(#eaa6077920)"><path fill="#000000" d="M 187.523438 83.796875 C 133.753906 83.796875 89.988281 124.59375 84.414062 176.320312 C 85.769531 176.195312 87.109375 176.078125 88.429688 175.972656 C 94.167969 126.351562 136.300781 87.753906 187.523438 87.753906 C 238.746094 87.753906 280.824219 126.421875 286.601562 175.863281 C 287.972656 175.96875 289.308594 176.082031 290.613281 176.199219 C 284.980469 124.515625 241.253906 83.796875 187.523438 83.796875 Z M 266.5625 248.660156 C 262.929688 253.363281 236.933594 287.589844 187.523438 287.589844 C 138.492188 287.589844 112.464844 253.789062 108.707031 248.953125 C 107.183594 249.097656 105.636719 249.246094 104.085938 249.410156 C 107.652344 254.21875 134.785156 291.542969 187.523438 291.542969 C 240.0625 291.542969 267.144531 254.597656 271.214844 249.054688 C 269.8125 248.925781 268.242188 248.792969 266.5625 248.660156 Z M 266.5625 248.660156 " fill-opacity="1" fill-rule="nonzero"/></g><g clip-path="url(#cd44cf2025)"><path fill="#000000" d="M 323.941406 186.53125 L 311.824219 218.019531 C 311.773438 218.144531 316.050781 250.925781 316.050781 250.925781 C 316.109375 251.347656 315.769531 251.710938 315.355469 251.710938 C 315.320312 251.710938 315.28125 251.710938 315.246094 251.703125 C 295.257812 247.246094 272.078125 244.578125 269.699219 244.371094 C 267.414062 244.171875 242.789062 242.480469 238.820312 242.171875 C 238.28125 242.128906 238.011719 241.503906 238.347656 241.074219 L 242.835938 235.398438 C 243.113281 235.042969 242.921875 234.523438 242.480469 234.4375 C 222.695312 230.699219 190.5 230.40625 188.25 230.414062 C 157.183594 230.515625 136.640625 233.730469 132.855469 234.335938 C 132.332031 234.421875 132.171875 235.097656 132.605469 235.410156 L 140.34375 241.082031 C 140.851562 241.457031 140.621094 242.257812 139.992188 242.300781 C 134.230469 242.683594 112.347656 244 97.042969 245.660156 C 83.351562 247.140625 89.804688 245.867188 59.796875 251.703125 C 59.757812 251.710938 59.71875 251.710938 59.683594 251.710938 C 59.269531 251.710938 58.929688 251.347656 58.988281 250.925781 L 63.257812 218.359375 C 63.277344 218.246094 63.257812 218.128906 63.21875 218.019531 L 51.097656 186.53125 C 50.945312 186.125 51.183594 185.675781 51.605469 185.589844 C 63.351562 183.261719 86.675781 180.652344 88.003906 180.539062 C 90.296875 180.339844 116.109375 179.105469 121.417969 179.105469 L 123.191406 179.105469 C 123.527344 179.105469 123.8125 179.34375 123.878906 179.671875 L 128.585938 203.824219 C 128.628906 204.046875 128.800781 204.148438 128.96875 204.148438 C 128.992188 204.148438 129.011719 204.148438 129.03125 204.140625 C 129.21875 204.113281 129.390625 203.972656 129.371094 203.730469 L 127.59375 171.570312 C 127.570312 171.214844 127.824219 170.898438 128.175781 170.839844 C 128.292969 170.820312 152.824219 166.414062 188.703125 166.414062 C 219.875 166.414062 246.75 170.824219 246.863281 170.839844 C 247.214844 170.898438 247.46875 171.214844 247.453125 171.574219 L 245.667969 203.730469 C 245.65625 203.96875 245.824219 204.117188 246.003906 204.140625 C 246.023438 204.148438 246.050781 204.148438 246.070312 204.148438 C 246.242188 204.148438 246.414062 204.050781 246.457031 203.824219 L 251.164062 179.671875 C 251.226562 179.34375 251.515625 179.105469 251.847656 179.105469 L 251.851562 179.105469 C 265.21875 179.105469 284.710938 180.246094 287.03125 180.429688 C 288.5625 180.550781 315.625 184.058594 323.429688 185.589844 C 323.855469 185.675781 324.097656 186.125 323.941406 186.53125 Z M 323.941406 186.53125 " fill-opacity="1" fill-rule="nonzero"/></g><path fill="#ffffff" d="M 154.234375 226.367188 C 149.972656 226.722656 147.84375 226.929688 143.589844 227.402344 C 141.648438 209.8125 139.710938 192.222656 137.773438 174.632812 C 142.511719 174.109375 144.886719 173.878906 149.636719 173.476562 C 155.101562 173.027344 160.324219 176.207031 160.128906 182.300781 C 160.347656 185.800781 160.457031 187.550781 160.671875 191.050781 C 160.914062 194.949219 159.710938 197.730469 156.390625 199.011719 C 160.117188 199.777344 161.550781 202.496094 161.792969 206.394531 C 162.03125 210.3125 162.152344 212.269531 162.394531 216.183594 C 163.21875 221.671875 159.535156 225.90625 154.234375 226.367188 Z M 153.839844 182.335938 C 153.652344 179.871094 152.402344 178.683594 150.089844 178.878906 C 147.992188 179.054688 146.941406 179.148438 144.847656 179.347656 C 145.425781 185.40625 146.003906 191.464844 146.582031 197.519531 C 148.324219 197.355469 149.191406 197.277344 150.933594 197.125 C 153.492188 196.90625 154.820312 195.210938 154.613281 192.507812 C 154.304688 188.441406 154.148438 186.40625 153.839844 182.335938 Z M 155.804688 205.929688 C 155.601562 203.226562 153.960938 201.746094 151.515625 201.957031 C 149.726562 202.109375 148.835938 202.191406 147.046875 202.363281 C 147.65625 208.710938 148.261719 215.058594 148.871094 221.40625 C 150.800781 221.222656 151.769531 221.136719 153.703125 220.972656 C 155.796875 220.796875 156.828125 219.441406 156.644531 216.980469 C 156.308594 212.558594 156.140625 210.351562 155.804688 205.929688 Z M 155.804688 205.929688 " fill-opacity="1" fill-rule="nonzero"/><path fill="#ffffff" d="M 171.34375 225.300781 C 170.621094 207.617188 169.902344 189.9375 169.179688 172.257812 C 171.8125 172.148438 173.128906 172.105469 175.761719 172.035156 C 176.226562 189.722656 176.695312 207.414062 177.160156 225.105469 C 174.832031 225.164062 173.667969 225.203125 171.34375 225.300781 Z M 171.34375 225.300781 " fill-opacity="1" fill-rule="nonzero"/><path fill="#ffffff" d="M 186.246094 224.96875 C 186.179688 207.269531 186.109375 189.574219 186.042969 171.878906 C 192.417969 171.855469 198.792969 171.964844 205.160156 172.207031 C 205.082031 174.339844 205.039062 175.410156 204.957031 177.542969 C 199.96875 177.355469 197.472656 177.292969 192.480469 177.242188 C 192.417969 183.140625 192.359375 189.039062 192.296875 194.9375 C 195.757812 194.972656 197.488281 195.007812 200.945312 195.113281 C 200.882812 197.183594 200.851562 198.21875 200.789062 200.292969 C 197.371094 200.1875 195.664062 200.152344 192.242188 200.117188 C 192.175781 206.625 192.109375 213.136719 192.042969 219.644531 C 196.5625 219.691406 198.824219 219.746094 203.347656 219.917969 C 203.265625 222.054688 203.226562 223.121094 203.144531 225.257812 C 197.515625 225.042969 191.878906 224.945312 186.246094 224.96875 Z M 186.246094 224.96875 " fill-opacity="1" fill-rule="nonzero"/><path fill="#ffffff" d="M 227.808594 226.957031 C 225.660156 217.722656 223.355469 208.535156 220.890625 199.378906 C 220.070312 195.890625 219.644531 194.148438 218.777344 190.667969 C 217.945312 202.4375 217.113281 214.203125 216.28125 225.972656 C 214.117188 225.820312 213.035156 225.75 210.867188 225.625 C 211.878906 207.957031 212.890625 190.289062 213.902344 172.621094 C 216.246094 172.757812 217.417969 172.832031 219.757812 172.996094 C 222.175781 182.261719 224.441406 191.554688 226.566406 200.894531 C 227.269531 204.417969 227.609375 206.179688 228.273438 209.703125 C 229.421875 197.800781 230.574219 185.898438 231.722656 173.996094 C 234.167969 174.234375 235.390625 174.363281 237.832031 174.632812 C 235.894531 192.222656 233.957031 209.808594 232.015625 227.398438 C 230.335938 227.214844 229.492188 227.125 227.808594 226.957031 Z M 227.808594 226.957031 " fill-opacity="1" fill-rule="nonzero"/><path fill="#ffffff" d="M 92.757812 240.808594 C 90.355469 241.109375 89.152344 241.273438 86.757812 241.609375 C 81.390625 224.359375 75.542969 207.296875 69.21875 190.375 C 71.972656 189.925781 73.355469 189.710938 76.121094 189.304688 C 80.351562 202.382812 84.339844 215.523438 88.089844 228.75 C 88.039062 215.066406 88.023438 201.378906 88.046875 187.691406 C 90.644531 187.375 91.945312 187.226562 94.546875 186.945312 C 93.839844 204.894531 93.242188 222.847656 92.757812 240.808594 Z M 92.757812 240.808594 " fill-opacity="1" fill-rule="nonzero"/><path fill="#ffffff" d="M 106.726562 239.28125 C 104.921875 221.601562 102.90625 203.953125 100.6875 186.320312 C 103.410156 186.0625 104.773438 185.941406 107.503906 185.722656 C 109.46875 203.382812 111.234375 221.0625 112.789062 238.765625 C 110.363281 238.953125 109.148438 239.058594 106.726562 239.28125 Z M 106.726562 239.28125 " fill-opacity="1" fill-rule="nonzero"/><path fill="#ffffff" d="M 266.105469 238.1875 C 261.816406 237.785156 259.667969 237.605469 255.359375 237.292969 C 256.785156 219.59375 258.355469 201.910156 260.082031 184.238281 C 264.832031 184.589844 267.199219 184.789062 271.929688 185.242188 C 278.726562 185.875 282.914062 191.222656 281.410156 198.058594 C 280.089844 207.886719 278.8125 217.722656 277.578125 227.5625 C 277.253906 234.0625 272.707031 238.800781 266.105469 238.1875 Z M 275.058594 196.964844 C 275.550781 192.996094 274.425781 191.101562 271.089844 190.785156 C 269.109375 190.597656 268.117188 190.507812 266.132812 190.339844 C 264.636719 204.28125 263.226562 218.234375 261.914062 232.195312 C 263.75 232.347656 264.667969 232.429688 266.503906 232.601562 C 269.589844 232.890625 271.027344 231.277344 271.464844 227.386719 C 272.617188 217.238281 273.816406 207.097656 275.058594 196.964844 Z M 275.058594 196.964844 " fill-opacity="1" fill-rule="nonzero"/><path fill="#ffffff" d="M 297.179688 242.070312 C 297.328125 237.433594 297.402344 235.113281 297.546875 230.476562 C 294.480469 230.003906 292.945312 229.78125 289.867188 229.355469 C 288.488281 233.8125 287.8125 236.046875 286.484375 240.511719 C 284.257812 240.210938 283.144531 240.070312 280.914062 239.792969 C 286.019531 222.484375 291.507812 205.316406 297.382812 188.253906 C 300.089844 188.640625 301.4375 188.839844 304.136719 189.253906 C 303.917969 207.1875 303.601562 225.117188 303.195312 243.046875 C 300.792969 242.640625 299.589844 242.445312 297.179688 242.070312 Z M 298.519531 201.1875 C 296.089844 208.828125 293.722656 216.484375 291.417969 224.164062 C 293.917969 224.511719 295.164062 224.695312 297.65625 225.074219 C 297.953125 217.113281 298.238281 209.148438 298.519531 201.1875 Z M 298.519531 201.1875 " fill-opacity="1" fill-rule="nonzero"/><path fill="#000000" d="M 238.488281 246.683594 C 236.566406 246.542969 234.894531 245.355469 234.117188 243.589844 C 233.339844 241.820312 233.605469 239.78125 234.800781 238.265625 L 235.152344 237.820312 C 232.21875 237.402344 228.402344 236.925781 223.757812 236.476562 C 213.632812 244.035156 201.089844 248.511719 187.523438 248.511719 C 173.953125 248.511719 161.578125 244.09375 151.492188 236.625 C 148.339844 236.914062 145.539062 237.21875 143.109375 237.503906 C 144.800781 238.800781 145.53125 241.023438 144.9375 243.078125 C 144.328125 245.171875 142.460938 246.675781 140.292969 246.820312 C 138.65625 246.925781 124.285156 247.691406 115.949219 248.335938 C 117.640625 250.332031 142.15625 281.570312 187.523438 281.570312 C 232.886719 281.570312 256.675781 251.203125 259.289062 248.101562 C 253.984375 247.71875 239.800781 246.78125 238.488281 246.683594 Z M 238.488281 246.683594 " fill-opacity="1" fill-rule="nonzero"/><path fill="#ffffff" d="M 148.097656 262.519531 L 148.839844 259.800781 L 146.28125 258.480469 L 144.503906 260.664062 L 142.019531 259.382812 L 151.269531 248.507812 L 154.238281 250.039062 L 150.75 263.886719 Z M 150.949219 252.691406 L 147.683594 256.714844 L 149.5 257.652344 Z M 150.949219 252.691406 " fill-opacity="1" fill-rule="nonzero"/><path fill="#ffffff" d="M 160.246094 267.386719 L 157.558594 266.484375 L 158.597656 252.160156 L 161.503906 253.136719 L 160.414062 262.75 L 165.339844 254.425781 L 168.109375 255.355469 Z M 160.246094 267.386719 " fill-opacity="1" fill-rule="nonzero"/><path fill="#ffffff" d="M 173.976562 270.597656 L 173.871094 267.78125 L 171.035156 267.289062 L 169.988281 269.90625 L 167.234375 269.429688 L 172.8125 256.277344 L 176.097656 256.847656 L 176.914062 271.105469 Z M 173.753906 260.363281 L 171.84375 265.183594 L 173.855469 265.53125 Z M 173.753906 260.363281 " fill-opacity="1" fill-rule="nonzero"/><path fill="#ffffff" d="M 182.175781 271.503906 L 182.46875 257.59375 L 185.449219 257.65625 L 185.210938 268.996094 L 189.777344 269.09375 L 189.722656 271.664062 Z M 182.175781 271.503906 " fill-opacity="1" fill-rule="nonzero"/><path fill="#ffffff" d="M 201.195312 270.578125 L 200.261719 267.921875 L 197.40625 268.296875 L 197.183594 271.105469 L 194.414062 271.46875 L 195.835938 257.253906 L 199.144531 256.820312 L 204.152344 270.191406 Z M 197.949219 260.875 L 197.554688 266.042969 L 199.578125 265.777344 Z M 197.949219 260.875 " fill-opacity="1" fill-rule="nonzero"/><path fill="#ffffff" d="M 214.039062 267.609375 L 209.613281 268.96875 L 205.542969 255.667969 L 209.972656 254.308594 C 212.726562 253.464844 214.746094 254.789062 215.421875 257.007812 L 217.09375 262.480469 C 217.777344 264.714844 216.792969 266.765625 214.039062 267.609375 Z M 212.589844 257.941406 C 212.265625 256.882812 211.578125 256.414062 210.480469 256.753906 L 209.125 257.167969 L 211.738281 265.71875 L 213.09375 265.300781 C 214.191406 264.964844 214.5 264.195312 214.175781 263.136719 L 212.585938 257.941406 Z M 212.589844 257.941406 " fill-opacity="1" fill-rule="nonzero"/><path fill="#ffffff" d="M 228.355469 262.1875 C 225.808594 263.484375 223.480469 262.679688 222.355469 260.460938 L 219.597656 255.023438 C 218.484375 252.824219 219.203125 250.464844 221.75 249.167969 C 224.316406 247.863281 226.625 248.679688 227.742188 250.878906 L 230.5 256.316406 C 231.625 258.53125 230.921875 260.882812 228.355469 262.1875 Z M 224.988281 252.09375 C 224.5625 251.253906 223.777344 250.953125 222.886719 251.40625 C 222.011719 251.851562 221.792969 252.664062 222.21875 253.503906 L 225.128906 259.238281 C 225.550781 260.078125 226.339844 260.378906 227.210938 259.9375 C 228.105469 259.480469 228.324219 258.667969 227.898438 257.828125 Z M 224.988281 252.09375 " fill-opacity="1" fill-rule="nonzero"/><path fill="#000000" d="M 187.523438 93.773438 C 139.40625 93.773438 100.398438 129.804688 94.539062 175.511719 C 107.835938 174.613281 123.230469 174.574219 123.230469 174.574219 L 123.078125 171.835938 C 123 170.554688 123.386719 169.351562 124.101562 168.398438 C 124.890625 167.339844 126.074219 166.585938 127.472656 166.367188 L 127.644531 166.339844 C 128.433594 166.203125 130.90625 165.820312 130.960938 165.8125 L 187.523438 144.492188 C 187.523438 144.492188 244.164062 165.824219 244.222656 165.832031 C 245.550781 166.027344 246.625 166.203125 247.425781 166.339844 L 247.585938 166.367188 C 248.972656 166.589844 250.144531 167.339844 250.929688 168.394531 C 251.644531 169.34375 252.03125 170.542969 251.964844 171.824219 L 251.816406 174.574219 L 251.851562 174.574219 C 262.652344 174.574219 272.160156 174.90625 280.488281 175.425781 C 274.554688 129.433594 235.257812 93.769531 187.523438 93.769531 Z M 187.523438 135.300781 L 136.632812 154.476562 C 147.488281 137.84375 166.246094 126.832031 187.523438 126.832031 C 208.796875 126.832031 227.554688 137.84375 238.40625 154.476562 Z M 187.523438 135.300781 " fill-opacity="1" fill-rule="nonzero"/><path fill="#ffffff" d="M 143.847656 124.792969 L 142.125 125.972656 L 145.09375 130.3125 L 142.582031 132.035156 L 134.585938 120.324219 L 138.816406 117.425781 C 140.78125 116.078125 142.597656 116.511719 143.800781 118.269531 L 144.882812 119.851562 C 146.070312 121.59375 145.8125 123.445312 143.847656 124.792969 Z M 141.429688 119.96875 C 140.996094 119.335938 140.511719 119.152344 139.859375 119.597656 L 138.4375 120.574219 L 140.851562 124.105469 L 142.273438 123.132812 C 142.925781 122.6875 142.929688 122.167969 142.496094 121.535156 Z M 141.429688 119.96875 " fill-opacity="1" fill-rule="nonzero"/><path fill="#ffffff" d="M 160.140625 122.132812 C 159.015625 122.644531 158.238281 122.0625 157.695312 120.859375 L 156.734375 118.746094 C 156.425781 118.066406 155.816406 117.644531 155.019531 118.003906 L 153.527344 118.683594 L 155.921875 123.960938 L 153.152344 125.21875 L 147.292969 112.300781 L 151.941406 110.1875 C 154.035156 109.234375 155.835938 109.863281 156.683594 111.726562 L 157.316406 113.125 C 157.792969 114.171875 157.648438 115.195312 156.625 116.035156 C 157.914062 115.777344 158.914062 116.492188 159.316406 117.382812 L 160.277344 119.5 C 160.550781 120.101562 160.929688 120.417969 161.417969 120.570312 L 161.785156 121.386719 Z M 154.078125 113.097656 C 153.789062 112.457031 153.332031 112.171875 152.617188 112.5 L 151.046875 113.214844 L 152.65625 116.761719 L 154.109375 116.101562 C 154.828125 115.777344 155.046875 115.230469 154.695312 114.457031 Z M 154.078125 113.097656 " fill-opacity="1" fill-rule="nonzero"/><path fill="#ffffff" d="M 169.546875 119.441406 C 166.722656 120.15625 164.589844 118.824219 163.96875 116.367188 L 162.449219 110.335938 C 161.835938 107.898438 163.085938 105.714844 165.914062 105 C 168.757812 104.28125 170.871094 105.617188 171.484375 108.054688 L 173.003906 114.085938 C 173.625 116.546875 172.394531 118.722656 169.546875 119.441406 Z M 168.472656 108.640625 C 168.238281 107.710938 167.527344 107.230469 166.535156 107.480469 C 165.566406 107.722656 165.167969 108.484375 165.398438 109.414062 L 167 115.777344 C 167.234375 116.707031 167.949219 117.183594 168.917969 116.941406 C 169.910156 116.691406 170.308594 115.929688 170.074219 115 L 168.472656 108.636719 Z M 168.472656 108.640625 " fill-opacity="1" fill-rule="nonzero"/><path fill="#ffffff" d="M 182.855469 111.097656 L 183.304688 116.960938 L 180.269531 117.195312 L 179.820312 111.332031 L 175.539062 103.328125 L 178.71875 103.085938 L 181.289062 108.503906 L 182.898438 102.761719 L 185.929688 102.53125 Z M 182.855469 111.097656 " fill-opacity="1" fill-rule="nonzero"/><path fill="#ffffff" d="M 190.308594 116.816406 L 191.539062 102.679688 L 199.402344 103.371094 L 199.179688 105.917969 L 194.347656 105.492188 L 194.078125 108.589844 L 197.40625 108.882812 L 197.203125 111.175781 L 193.878906 110.882812 L 193.570312 114.425781 L 198.398438 114.847656 L 198.167969 117.503906 L 190.308594 116.8125 Z M 190.308594 116.816406 " fill-opacity="1" fill-rule="nonzero"/><path fill="#ffffff" d="M 206.34375 119.660156 C 203.441406 118.902344 202.242188 116.585938 202.863281 114.214844 L 204.410156 108.277344 C 205.03125 105.90625 207.207031 104.472656 210.109375 105.230469 C 212.96875 105.980469 213.984375 108.074219 213.386719 110.363281 L 213.039062 111.703125 L 210.402344 111.011719 L 210.738281 109.734375 C 210.984375 108.785156 210.589844 108.023438 209.5 107.734375 C 208.410156 107.449219 207.6875 107.945312 207.453125 108.832031 L 205.78125 115.242188 C 205.554688 116.105469 205.945312 116.890625 207.035156 117.175781 C 208.125 117.460938 208.84375 116.988281 209.089844 116.042969 L 209.425781 114.761719 L 212.058594 115.453125 L 211.710938 116.792969 C 211.113281 119.078125 209.203125 120.410156 206.34375 119.660156 Z M 206.34375 119.660156 " fill-opacity="1" fill-rule="nonzero"/><path fill="#ffffff" d="M 224.070312 113.484375 L 219.289062 124.035156 L 216.519531 122.777344 L 221.300781 112.226562 L 218.511719 110.957031 L 219.585938 108.589844 L 227.914062 112.378906 L 226.839844 114.742188 Z M 224.070312 113.484375 " fill-opacity="1" fill-rule="nonzero"/><path fill="#ffffff" d="M 228.558594 129.800781 C 226.144531 128.164062 225.714844 125.683594 227.132812 123.585938 L 230.617188 118.433594 C 232.027344 116.351562 234.484375 115.832031 236.898438 117.472656 C 239.328125 119.121094 239.742188 121.589844 238.332031 123.667969 L 234.847656 128.820312 C 233.429688 130.917969 230.988281 131.449219 228.558594 129.800781 Z M 235.894531 121.804688 C 236.429688 121.011719 236.3125 120.160156 235.46875 119.585938 C 234.640625 119.023438 233.804688 119.230469 233.269531 120.023438 L 229.59375 125.457031 C 229.054688 126.25 229.171875 127.101562 230 127.664062 C 230.847656 128.238281 231.679688 128.03125 232.21875 127.238281 Z M 235.894531 121.804688 " fill-opacity="1" fill-rule="nonzero"/></svg>